<svg width="20.000000" height="20.000000" viewBox="0 0 20 20" fill="none" xmlns="http://www.w3.org/2000/svg" xmlns:xlink="http://www.w3.org/1999/xlink">
	<desc>
			Created with Pixso.
	</desc>
	<defs>
		<clipPath id="clip602_1419">
			<rect id="icon/pin_stroke" width="20.000000" height="20.000000" transform="translate(0.000000 -0.357422)" fill="white" fill-opacity="0"/>
		</clipPath>
	</defs>
	<g clip-path="url(#clip602_1419)">
		<path id="Vector" d="M3.18 7.04C3.18 3.46 6.23 0.55 10 0.55C13.76 0.55 16.81 3.46 16.81 7.04L16.81 7.44C16.81 8.87 16.34 10.27 15.47 11.44L10.01 18.72C10 18.73 9.99 18.73 9.98 18.72L4.52 11.44C3.65 10.27 3.18 8.87 3.18 7.44L3.18 7.04ZM8.66 4.45C9.5 4.06 10.49 4.06 11.33 4.45C12.17 4.83 12.78 5.56 12.99 6.43C13.2 7.3 12.98 8.21 12.4 8.91C11.81 9.6 10.93 10.01 10 10.01C9.06 10.01 8.18 9.6 7.59 8.91C7.01 8.21 6.79 7.3 7 6.43C7.21 5.56 7.82 4.83 8.66 4.45Z" stroke="#2D383F" stroke-opacity="1.000000" stroke-width="1.000000" stroke-linejoin="round"/>
	</g>
</svg>
